<?xml version="1.0" encoding="UTF-8" standalone="no"?>
<!DOCTYPE svg PUBLIC "-//W3C//DTD SVG 1.1//EN" "http://www.w3.org/Graphics/SVG/1.1/DTD/svg11.dtd">
<svg width="100%" height="100%" viewBox="0 0 1920 1920" version="1.1" xmlns="http://www.w3.org/2000/svg" xmlns:xlink="http://www.w3.org/1999/xlink" xml:space="preserve" xmlns:serif="http://www.serif.com/" style="fill-rule:evenodd;clip-rule:evenodd;">
    <g id="ooorganize.svg" transform="matrix(3.03255,0,0,3.08989,960.361,960)">
        <g transform="matrix(1,0,0,1,-400,-400)">
            <g>
                <path d="M148.762,85.882C153.417,112.882 157.586,138.112 161.4,161.814C137.324,158.551 113.248,155.288 89.172,152.025C85.971,128.845 82.532,104.552 78.783,79.092C102.109,81.355 125.435,83.618 148.762,85.882Z" style="fill:none;stroke:rgb(85,202,76);stroke-opacity:0.15;stroke-width:3.5px;"/>
                <path d="M216.477,92.294C221.28,120.716 225.421,146.752 229.102,170.85C206.534,167.838 183.967,164.826 161.4,161.814C157.586,138.112 153.417,112.882 148.762,85.882C171.333,88.019 193.905,90.157 216.477,92.294Z" style="fill:none;stroke:rgb(85,202,76);stroke-opacity:0.15;stroke-width:3.5px;"/>
                <path d="M281.37,97.461C285.5,127.018 288.914,153.73 291.84,178.204C281.699,177.806 281.703,177.935 271.628,176.569C257.453,174.663 243.277,172.756 229.102,170.85C225.421,146.752 221.28,120.716 216.477,92.294C230.522,93.621 244.568,94.947 258.613,96.273C269.967,97.348 269.954,97.255 281.37,97.461Z" style="fill:none;stroke:rgb(85,202,76);stroke-opacity:0.15;stroke-width:3.5px;"/>
                <path d="M340.786,98.264C342.887,128.099 344.631,155.08 346.132,179.81C326.087,179.413 307.776,178.828 291.84,178.204C288.914,153.73 285.5,127.018 281.37,97.461C301.565,97.824 321.423,98.089 340.786,98.264Z" style="fill:none;stroke:rgb(85,202,76);stroke-opacity:0.15;stroke-width:3.5px;"/>
                <path d="M399.935,98.529C399.92,125.799 399.904,153.069 399.889,180.34C382.378,180.343 364.426,180.173 346.132,179.81C344.631,155.08 342.887,128.099 340.786,98.264C360.613,98.443 380.382,98.53 399.935,98.529Z" style="fill:none;stroke:rgb(85,202,76);stroke-opacity:0.15;stroke-width:3.5px;"/>
                <path d="M459.087,98.255C456.95,128.087 455.176,155.065 453.651,179.792C435.322,180.161 417.369,180.337 399.889,180.34C399.904,153.069 399.92,125.799 399.935,98.529C419.49,98.527 439.26,98.437 459.087,98.255Z" style="fill:none;stroke:rgb(85,202,76);stroke-opacity:0.15;stroke-width:3.5px;"/>
                <path d="M518.51,97.442C514.346,126.993 510.905,153.699 507.956,178.167C492.022,178.796 473.705,179.388 453.651,179.792C455.176,155.065 456.95,128.087 459.087,98.255C478.453,98.077 498.313,97.809 518.51,97.442Z" style="fill:none;stroke:rgb(85,202,76);stroke-opacity:0.15;stroke-width:3.5px;"/>
                <path d="M583.526,92.187C578.721,120.584 574.574,146.607 570.886,170.699C556.289,172.662 541.692,174.625 527.095,176.587C517.571,177.879 517.578,177.787 507.956,178.167C510.905,153.699 514.346,126.993 518.51,97.442C529.973,97.234 529.967,97.246 541.376,96.166C555.426,94.839 569.476,93.513 583.526,92.187Z" style="fill:none;stroke:rgb(85,202,76);stroke-opacity:0.15;stroke-width:3.5px;"/>
                <path d="M651.274,85.769C646.627,112.744 642.463,137.959 638.653,161.654C616.064,164.669 593.475,167.684 570.886,170.699C574.574,146.607 578.721,120.584 583.526,92.187C606.109,90.048 628.691,87.908 651.274,85.769Z" style="fill:none;stroke:rgb(85,202,76);stroke-opacity:0.15;stroke-width:3.5px;"/>
                <path d="M721.298,78.971C717.572,104.403 714.154,128.678 710.971,151.848C686.865,155.117 662.759,158.386 638.653,161.654C642.463,137.959 646.627,112.745 651.274,85.769C674.615,83.503 697.957,81.237 721.298,78.971Z" style="fill:none;stroke:rgb(85,202,76);stroke-opacity:0.15;stroke-width:3.5px;"/>
                <path d="M161.4,161.814C165.263,185.819 168.816,208.597 172.179,230.327C152.669,227.74 126.826,224.288 98.41,220.365C95.882,201.36 92.667,177.336 89.172,152.025C113.248,155.288 137.324,158.551 161.4,161.814Z" style="fill:none;stroke:rgb(85,202,76);stroke-opacity:0.15;stroke-width:3.5px;"/>
                <path d="M229.102,170.85C232.822,195.211 236.113,217.86 239.158,239.16C216.832,236.216 194.505,233.271 172.179,230.327C169.181,210.957 165.472,187.117 161.4,161.814C183.967,164.826 206.534,167.838 229.102,170.85Z" style="fill:none;stroke:rgb(85,202,76);stroke-opacity:0.15;stroke-width:3.5px;"/>
                <path d="M159.493,150.023C165.769,150.843 171.654,156.885 172.693,163.325C173.736,169.788 169.522,174.261 163.257,173.409C157.022,172.561 151.017,166.737 149.987,160.284C148.961,153.857 153.26,149.208 159.493,150.023Z" style="fill:rgb(85,202,76);"/>
                <path d="M291.84,178.204C294.8,202.956 297.279,225.572 299.489,246.48C284.466,245.537 284.512,245.204 269.596,243.205C259.45,241.857 249.304,240.508 239.158,239.16C236.113,217.86 232.822,195.211 229.102,170.85C243.277,172.756 257.453,174.663 271.628,176.569C281.703,177.935 281.698,177.806 291.84,178.204Z" style="fill:none;stroke:rgb(85,202,76);stroke-opacity:0.15;stroke-width:3.5px;"/>
                <path d="M227.255,158.849C233.213,159.626 238.821,165.737 239.798,172.281C240.774,178.823 236.777,183.38 230.88,182.579C225.003,181.78 219.342,175.943 218.325,169.411C217.304,162.857 221.347,158.079 227.255,158.849Z" style="fill:rgb(85,202,76);"/>
                <path d="M346.132,179.81C347.649,204.816 348.927,227.695 350.072,248.89C331.67,248.301 314.631,247.431 299.489,246.48C297.282,225.604 294.803,202.977 291.84,178.204C307.771,178.828 326.083,179.413 346.132,179.81Z" style="fill:none;stroke:rgb(85,202,76);stroke-opacity:0.15;stroke-width:3.5px;"/>
                <path d="M290.365,166.018C295.319,166.195 300,171.834 300.739,178.539C301.466,185.133 298.106,190.267 293.241,190.059C288.393,189.851 283.759,184.414 282.913,177.84C282.051,171.147 285.438,165.843 290.365,166.018Z" style="fill:rgb(85,202,76);"/>
                <path d="M399.889,180.34C399.877,203.454 399.866,226.569 399.854,249.684C381.911,249.689 365.223,249.375 350.072,248.89C348.927,227.695 347.649,204.816 346.132,179.81C364.443,180.173 382.395,180.343 399.889,180.34Z" style="fill:none;stroke:rgb(85,202,76);stroke-opacity:0.15;stroke-width:3.5px;"/>
                <path d="M345.375,167.494C350.254,167.582 354.562,173.188 354.907,179.97C355.245,186.626 351.634,191.9 346.85,191.796C342.075,191.692 337.81,186.268 337.342,179.622C336.864,172.845 340.511,167.407 345.375,167.494Z" style="fill:rgb(85,202,76);"/>
                <path d="M453.651,179.792C452.108,204.795 450.808,227.67 449.643,248.862C434.506,249.355 417.813,249.679 399.854,249.684C399.866,226.569 399.877,203.454 399.889,180.34C417.386,180.337 435.34,180.161 453.651,179.792Z" style="fill:none;stroke:rgb(85,202,76);stroke-opacity:0.15;stroke-width:3.5px;"/>
                <path d="M399.895,167.981C404.744,167.98 408.7,173.518 408.628,180.324C408.558,186.997 404.637,192.367 399.883,192.368C395.128,192.369 391.213,187 391.149,180.327C391.085,173.521 395.047,167.981 399.895,167.981Z" style="fill:rgb(85,202,76);"/>
                <path d="M507.956,178.167C504.973,202.913 502.474,225.523 500.247,246.425C485.11,247.383 468.061,248.263 449.643,248.862C450.808,227.67 452.108,204.795 453.651,179.792C473.701,179.388 492.017,178.797 507.956,178.167Z" style="fill:none;stroke:rgb(85,202,76);stroke-opacity:0.15;stroke-width:3.5px;"/>
                <path d="M454.42,167.477C459.285,167.389 462.926,172.825 462.442,179.601C461.967,186.245 457.696,191.671 452.92,191.776C448.135,191.882 444.529,186.61 444.874,179.955C445.225,173.173 449.541,167.566 454.42,167.477Z" style="fill:rgb(85,202,76);"/>
                <path d="M570.886,170.699C567.158,195.055 563.858,217.706 560.802,239.014C549.447,240.524 538.091,242.034 526.735,243.544C513.513,245.32 513.551,245.583 500.247,246.425C502.471,225.555 504.97,202.934 507.956,178.167C517.578,177.787 517.571,177.879 527.095,176.587C541.692,174.625 556.289,172.662 570.886,170.699Z" style="fill:none;stroke:rgb(85,202,76);stroke-opacity:0.15;stroke-width:3.5px;"/>
                <path d="M509.443,165.985C514.371,165.808 517.754,171.109 516.886,177.8C516.034,184.372 511.394,189.809 506.544,190.019C501.677,190.229 498.32,185.098 499.054,178.505C499.799,171.802 504.487,166.162 509.443,165.985Z" style="fill:rgb(85,202,76);"/>
                <path d="M638.653,161.654C634.794,185.652 631.242,208.432 627.879,230.168C605.52,233.117 583.161,236.066 560.802,239.014C563.858,217.706 567.158,195.055 570.886,170.699C593.475,167.684 616.064,164.669 638.653,161.654Z" style="fill:none;stroke:rgb(85,202,76);stroke-opacity:0.15;stroke-width:3.5px;"/>
                <path d="M572.736,158.702C578.648,157.931 582.694,162.708 581.672,169.259C580.653,175.79 574.986,181.627 569.104,182.426C563.202,183.228 559.203,178.672 560.182,172.131C561.161,165.589 566.774,159.479 572.736,158.702Z" style="fill:rgb(85,202,76);"/>
                <path d="M710.971,151.848C708.534,169.595 705.761,190.123 701.784,220.18C682.858,222.796 659.941,225.915 627.879,230.168C630.876,210.795 634.585,186.952 638.653,161.654C662.759,158.386 686.865,155.117 710.971,151.848Z" style="fill:none;stroke:rgb(85,202,76);stroke-opacity:0.15;stroke-width:3.5px;"/>
                <path d="M640.558,149.867C646.798,149.051 651.103,153.697 650.079,160.121C649.05,166.574 643.04,172.397 636.797,173.246C630.525,174.1 626.305,169.629 627.347,163.167C628.386,156.73 634.275,150.688 640.558,149.867Z" style="fill:rgb(85,202,76);"/>
                <path d="M172.179,230.327C175.462,251.535 178.745,272.743 182.028,293.951C158.914,291.516 134.032,288.804 107.072,285.678C104.184,263.907 101.297,242.136 98.41,220.365C117.362,222.981 140.179,226.084 172.179,230.327Z" style="fill:none;stroke:rgb(85,202,76);stroke-opacity:0.15;stroke-width:3.5px;"/>
                <path d="M239.158,239.16C242.082,259.679 245.006,280.198 247.93,300.717C225.963,298.462 203.995,296.206 182.028,293.951C178.745,272.743 175.462,251.535 172.179,230.327C194.505,233.271 216.832,236.216 239.158,239.16Z" style="fill:none;stroke:rgb(85,202,76);stroke-opacity:0.15;stroke-width:3.5px;"/>
                <path d="M170.512,219.571C176.796,220.419 182.581,225.959 183.489,231.824C184.399,237.698 180.093,241.766 173.821,240.953C167.546,240.14 161.599,234.724 160.688,228.8C159.783,222.909 164.211,218.721 170.512,219.571Z" style="fill:rgb(85,202,76);"/>
                <path d="M299.489,246.48C301.569,266.5 303.648,286.52 305.727,306.54C293.122,305.425 293.158,305.299 247.93,300.717C245.006,280.198 242.082,259.679 239.158,239.16C250.502,240.669 261.845,242.178 273.189,243.687C286.316,245.451 286.286,245.651 299.489,246.48Z" style="fill:none;stroke:rgb(85,202,76);stroke-opacity:0.15;stroke-width:3.5px;"/>
                <path d="M237.642,228.589C243.427,229.368 248.774,234.768 249.573,240.538C250.368,246.278 246.374,250.289 240.64,249.551C234.882,248.81 229.47,243.548 228.622,237.77C227.77,231.965 231.839,227.808 237.642,228.589Z" style="fill:rgb(85,202,76);"/>
                <path d="M350.072,248.89C351.152,269.178 352.231,289.466 353.311,309.753C336.247,308.976 320.236,307.824 305.727,306.54C303.648,286.52 301.569,266.5 299.489,246.48C314.623,247.43 331.663,248.301 350.072,248.89Z" style="fill:none;stroke:rgb(85,202,76);stroke-opacity:0.15;stroke-width:3.5px;"/>
                <path d="M298.377,236.035C303.01,236.307 307.253,241.24 307.814,246.983C308.369,252.666 305.124,257.012 300.564,256.707C296.03,256.404 291.765,251.591 291.122,245.935C290.47,240.198 293.77,235.764 298.377,236.035Z" style="fill:rgb(85,202,76);"/>
                <path d="M399.854,249.684C399.845,270.06 399.836,290.436 399.826,310.812C383.415,310.819 367.866,310.417 353.311,309.753C352.231,289.466 351.152,269.178 350.072,248.89C365.214,249.375 381.904,249.689 399.854,249.684Z" style="fill:none;stroke:rgb(85,202,76);stroke-opacity:0.15;stroke-width:3.5px;"/>
                <path d="M349.497,238.314C354.015,238.449 357.948,243.307 358.212,249.129C358.471,254.863 355.083,259.4 350.629,259.248C346.203,259.097 342.271,254.339 341.912,248.608C341.547,242.786 344.989,238.179 349.497,238.314Z" style="fill:rgb(85,202,76);"/>
                <path d="M449.643,248.862C448.546,269.147 447.448,289.432 446.351,309.717C431.819,310.39 416.264,310.806 399.826,310.812C399.836,290.436 399.845,270.06 399.854,249.684C417.806,249.679 434.498,249.355 449.643,248.862Z" style="fill:none;stroke:rgb(85,202,76);stroke-opacity:0.15;stroke-width:3.5px;"/>
                <path d="M399.859,239.065C404.34,239.064 407.995,243.809 407.94,249.66C407.886,255.409 404.255,260.084 399.85,260.085C395.444,260.086 391.818,255.414 391.769,249.665C391.72,243.814 395.379,239.066 399.859,239.065Z" style="fill:rgb(85,202,76);"/>
                <path d="M500.247,246.425C498.152,266.439 496.057,286.453 493.962,306.467C479.458,307.76 463.435,308.925 446.351,309.717C447.448,289.432 448.546,269.147 449.643,248.862C468.054,248.263 485.102,247.383 500.247,246.425Z" style="fill:none;stroke:rgb(85,202,76);stroke-opacity:0.15;stroke-width:3.5px;"/>
                <path d="M450.228,238.288C454.738,238.151 458.177,242.755 457.806,248.575C457.442,254.306 453.505,259.065 449.077,259.219C444.622,259.373 441.237,254.839 441.502,249.106C441.771,243.285 445.709,238.425 450.228,238.288Z" style="fill:rgb(85,202,76);"/>
                <path d="M560.802,239.014C557.867,259.546 554.932,280.077 551.997,300.609C505.472,305.322 505.496,305.438 493.962,306.467C496.057,286.453 498.152,266.439 500.247,246.425C515.365,245.468 515.311,245.074 530.331,243.062C540.488,241.713 550.645,240.364 560.802,239.014Z" style="fill:none;stroke:rgb(85,202,76);stroke-opacity:0.15;stroke-width:3.5px;"/>
                <path d="M501.368,235.983C505.978,235.709 509.276,240.14 508.619,245.875C507.972,251.529 503.701,256.343 499.164,256.649C494.601,256.956 491.359,252.614 491.918,246.932C492.483,241.191 496.732,236.257 501.368,235.983Z" style="fill:rgb(85,202,76);"/>
                <path d="M627.879,230.168C624.596,251.387 621.313,272.606 618.03,293.824C598.379,295.897 582.114,297.558 551.997,300.609C554.932,280.077 557.867,259.546 560.802,239.014C583.161,236.066 605.52,233.117 627.879,230.168Z" style="fill:none;stroke:rgb(85,202,76);stroke-opacity:0.15;stroke-width:3.5px;"/>
                <path d="M562.323,228.44C568.134,227.658 572.206,231.817 571.352,237.623C570.501,243.404 565.081,248.668 559.315,249.41C553.574,250.149 549.577,246.136 550.375,240.393C551.178,234.622 556.532,229.22 562.323,228.44Z" style="fill:rgb(85,202,76);"/>
                <path d="M701.784,220.18C698.911,241.959 696.039,263.738 693.166,285.517C666.136,288.658 641.194,291.381 618.03,293.824C621.313,272.606 624.596,251.387 627.879,230.168C647.36,227.584 673.256,224.123 701.784,220.18Z" style="fill:none;stroke:rgb(85,202,76);stroke-opacity:0.15;stroke-width:3.5px;"/>
                <path d="M629.546,219.41C635.858,218.558 640.294,222.746 639.389,228.638C638.479,234.563 632.523,239.983 626.237,240.798C619.954,241.613 615.64,237.544 616.551,231.668C617.459,225.802 623.251,220.259 629.546,219.41Z" style="fill:rgb(85,202,76);"/>
                <path d="M182.028,293.951C182.858,309.713 183.63,327.699 184.156,347.297C165.452,346.291 139.006,344.841 108.389,343.038C108.107,324.69 107.676,305.526 107.072,285.678C134.032,288.804 158.914,291.516 182.028,293.951Z" style="fill:none;stroke:rgb(85,202,76);stroke-opacity:0.15;stroke-width:3.5px;"/>
                <path d="M247.93,300.717C249.091,315.773 250.15,332.642 250.869,350.803C228.631,349.634 206.394,348.466 184.156,347.297C183.63,327.704 182.858,309.719 182.028,293.951C203.995,296.206 225.963,298.462 247.93,300.717Z" style="fill:none;stroke:rgb(85,202,76);stroke-opacity:0.15;stroke-width:3.5px;"/>
                <path d="M180.448,283.819C186.698,284.512 192.431,289.594 193.297,295.131C193.569,299.933 188.721,303.315 182.471,302.708C176.129,302.091 170.756,297.603 170.518,292.73C169.651,287.145 174.14,283.118 180.448,283.819Z" style="fill:rgb(85,202,76);"/>
                <path d="M305.727,306.54C307.015,320.95 308.172,336.857 308.956,353.811C296.443,353.238 296.468,353.171 250.869,350.803C250.151,332.649 249.092,315.781 247.93,300.717C293.915,305.376 293.892,305.493 305.727,306.54Z" style="fill:none;stroke:rgb(85,202,76);stroke-opacity:0.15;stroke-width:3.5px;"/>
                <path d="M246.536,291.008C252.128,291.611 257.266,296.432 258.006,301.739C258.374,306.266 254.126,309.493 248.543,308.97C242.894,308.442 238.028,304.262 237.693,299.68C236.898,294.318 240.886,290.399 246.536,291.008Z" style="fill:rgb(85,202,76);"/>
                <path d="M353.311,309.753C353.954,323.732 354.529,339.092 354.918,355.417C338.487,355.029 323.028,354.455 308.956,353.811C308.173,336.866 307.016,320.961 305.727,306.54C320.225,307.824 336.237,308.975 353.311,309.753Z" style="fill:none;stroke:rgb(85,202,76);stroke-opacity:0.15;stroke-width:3.5px;"/>
                <path d="M304.749,297.143C309.12,297.511 313.092,302.025 313.593,307.21C313.946,311.487 310.693,314.708 306.4,314.356C302.058,314.001 298.218,310.12 297.805,305.813C297.221,300.616 300.41,296.778 304.749,297.143Z" style="fill:rgb(85,202,76);"/>
                <path d="M399.826,310.812C399.821,325.857 399.817,340.902 399.812,355.947C384.029,355.95 369.028,355.75 354.918,355.417C354.529,339.1 353.955,323.742 353.311,309.753C367.852,310.416 383.402,310.819 399.826,310.812Z" style="fill:none;stroke:rgb(85,202,76);stroke-opacity:0.15;stroke-width:3.5px;"/>
                <path d="M352.802,300.226C357.024,300.408 360.692,304.806 360.929,310.073C361.089,314.204 357.81,317.483 353.645,317.308C349.458,317.131 345.886,313.528 345.664,309.377C345.336,304.111 348.597,300.044 352.802,300.226Z" style="fill:rgb(85,202,76);"/>
                <path d="M446.351,309.717C445.696,323.7 445.111,339.066 444.715,355.399C430.636,355.737 415.628,355.943 399.812,355.947C399.817,340.902 399.821,325.857 399.826,310.812C416.251,310.806 431.805,310.391 446.351,309.717Z" style="fill:none;stroke:rgb(85,202,76);stroke-opacity:0.15;stroke-width:3.5px;"/>
                <path d="M399.831,301.241C403.997,301.24 407.422,305.485 407.373,310.781C407.34,314.874 403.952,318.279 399.823,318.28C395.694,318.282 392.309,314.88 392.28,310.787C392.235,305.491 395.664,301.243 399.831,301.241Z" style="fill:rgb(85,202,76);"/>
                <path d="M493.962,306.467C492.663,320.887 491.496,336.806 490.705,353.774C476.638,354.423 461.166,355.004 444.715,355.399C445.111,339.075 445.696,323.71 446.351,309.717C463.426,308.925 479.448,307.761 493.962,306.467Z" style="fill:none;stroke:rgb(85,202,76);stroke-opacity:0.15;stroke-width:3.5px;"/>
                <path d="M446.868,300.19C451.074,300.005 454.333,304.069 454.001,309.334C453.776,313.487 450.199,317.094 446.01,317.274C441.844,317.452 438.567,314.175 438.73,310.042C438.971,304.775 442.646,300.376 446.868,300.19Z" style="fill:rgb(85,202,76);"/>
                <path d="M551.997,300.609C550.842,315.676 549.787,332.563 549.072,350.747C502.57,353.162 502.59,353.225 490.705,353.774C491.495,336.815 492.662,320.897 493.962,306.467C506.428,305.355 506.41,305.227 551.997,300.609Z" style="fill:none;stroke:rgb(85,202,76);stroke-opacity:0.15;stroke-width:3.5px;"/>
                <path d="M494.948,297.073C499.29,296.704 502.479,300.539 501.891,305.734C501.474,310.043 497.629,313.93 493.283,314.288C488.987,314.643 485.734,311.422 486.09,307.143C486.596,301.959 490.573,297.444 494.948,297.073Z" style="fill:rgb(85,202,76);"/>
                <path d="M618.03,293.824C617.205,309.6 616.438,327.606 615.915,347.232C593.634,348.403 571.353,349.575 549.072,350.747C549.787,332.57 550.841,315.684 551.997,300.609C570.915,298.693 594.053,296.354 618.03,293.824Z" style="fill:none;stroke:rgb(85,202,76);stroke-opacity:0.15;stroke-width:3.5px;"/>
                <path d="M553.397,290.893C559.056,290.283 563.049,294.204 562.252,299.57C561.919,304.157 557.046,308.341 551.388,308.87C545.795,309.393 541.538,306.164 541.905,301.632C542.648,296.321 547.794,291.497 553.397,290.893Z" style="fill:rgb(85,202,76);"/>
                <path d="M693.166,285.517C692.568,305.39 692.142,324.581 691.863,342.956C673.25,344.054 648.581,345.472 615.915,347.232C616.437,327.612 617.205,309.606 618.03,293.824C641.194,291.381 666.136,288.658 693.166,285.517Z" style="fill:none;stroke:rgb(85,202,76);stroke-opacity:0.15;stroke-width:3.5px;"/>
                <path d="M619.609,283.685C625.931,282.983 630.431,287.011 629.566,292.6C629.329,297.477 623.945,301.972 617.589,302.591C611.325,303.201 606.466,299.815 606.735,295.009C607.603,289.468 613.346,284.382 619.609,283.685Z" style="fill:rgb(85,202,76);"/>
                <path d="M184.156,347.297C184.645,365.529 184.865,383.127 184.865,400L108.828,400C108.828,381.265 108.684,362.234 108.389,343.038C126.998,344.134 151.565,345.543 184.156,347.297Z" style="fill:none;stroke:rgb(85,202,76);stroke-opacity:0.15;stroke-width:3.5px;"/>
                <path d="M250.869,350.803C251.466,365.877 251.849,382.358 251.849,400L184.865,400C184.865,383.1 184.644,365.503 184.156,347.297C206.394,348.466 228.631,349.634 250.869,350.803Z" style="fill:none;stroke:rgb(85,202,76);stroke-opacity:0.15;stroke-width:3.5px;"/>
                <path d="M183.906,338.672C190.212,339.065 195.422,343.212 195.558,347.907C195.693,352.612 190.683,356.19 184.368,355.905C177.948,355.616 172.633,351.447 172.514,346.667C172.395,341.901 177.491,338.271 183.906,338.672Z" style="fill:rgb(85,202,76);"/>
                <path d="M308.956,353.811C309.624,368.256 310.033,383.697 310.033,400L251.849,400C251.849,382.367 251.466,365.887 250.869,350.803C297.061,353.202 297.045,353.265 308.956,353.811Z" style="fill:none;stroke:rgb(85,202,76);stroke-opacity:0.15;stroke-width:3.5px;"/>
                <path d="M250.524,342.731C256.158,343.071 260.894,346.953 261.077,351.333C261.261,355.729 256.813,359.097 251.162,358.851C245.446,358.601 240.667,354.731 240.5,350.264C240.333,345.81 244.802,342.387 250.524,342.731Z" style="fill:rgb(85,202,76);"/>
                <path d="M354.918,355.417C355.252,369.414 355.454,384.313 355.454,400L310.033,400C310.033,383.71 309.625,368.27 308.956,353.811C323.018,354.454 338.478,355.029 354.918,355.417Z" style="fill:none;stroke:rgb(85,202,76);stroke-opacity:0.15;stroke-width:3.5px;"/>
                <path d="M308.577,346.216C312.757,346.438 316.38,349.989 316.558,354.146C316.735,358.279 313.438,361.537 309.278,361.377C305.07,361.215 301.505,357.619 301.298,353.447C301.089,349.253 304.348,345.992 308.577,346.216Z" style="fill:rgb(85,202,76);"/>
                <path d="M399.812,355.947C399.811,370.631 399.809,385.316 399.808,400L355.454,400C355.454,384.332 355.252,369.435 354.918,355.417C369.007,355.75 384.01,355.95 399.812,355.947Z" style="fill:none;stroke:rgb(85,202,76);stroke-opacity:0.15;stroke-width:3.5px;"/>
                <path d="M354.729,348.084C358.777,348.195 362.192,351.553 362.273,355.577C362.353,359.576 359.107,362.802 355.078,362.722C351.025,362.641 347.647,359.247 347.535,355.229C347.424,351.187 350.657,347.973 354.729,348.084Z" style="fill:rgb(85,202,76);"/>
                <path d="M444.715,355.399C444.376,369.401 444.17,384.306 444.17,400L399.808,400C399.809,385.316 399.811,370.631 399.812,355.947C415.609,355.943 430.615,355.737 444.715,355.399Z" style="fill:none;stroke:rgb(85,202,76);stroke-opacity:0.15;stroke-width:3.5px;"/>
                <path d="M399.814,348.7C403.827,348.699 407.111,351.945 407.095,355.931C407.078,359.892 403.805,363.164 399.811,363.165C395.817,363.166 392.545,359.895 392.53,355.934C392.515,351.948 395.801,348.701 399.814,348.7Z" style="fill:rgb(85,202,76);"/>
                <path d="M490.705,353.774C490.031,368.229 489.619,383.683 489.619,400L444.17,400C444.17,384.325 444.375,369.422 444.715,355.399C461.158,355.004 476.628,354.423 490.705,353.774Z" style="fill:none;stroke:rgb(85,202,76);stroke-opacity:0.15;stroke-width:3.5px;"/>
                <path d="M444.907,348.063C448.982,347.949 452.215,351.164 452.101,355.208C451.989,359.227 448.607,362.625 444.552,362.706C440.522,362.788 437.277,359.562 437.358,355.561C437.44,351.537 440.858,348.175 444.907,348.063Z" style="fill:rgb(85,202,76);"/>
                <path d="M549.072,350.747C548.478,365.832 548.097,382.332 548.097,400L489.619,400C489.619,383.696 490.031,368.243 490.705,353.774C503.108,353.202 503.082,353.135 549.072,350.747Z" style="fill:none;stroke:rgb(85,202,76);stroke-opacity:0.15;stroke-width:3.5px;"/>
                <path d="M491.087,346.173C495.32,345.947 498.58,349.209 498.37,353.407C498.161,357.583 494.592,361.183 490.38,361.346C486.218,361.507 482.919,358.249 483.098,354.112C483.277,349.952 486.905,346.397 491.087,346.173Z" style="fill:rgb(85,202,76);"/>
                <path d="M615.915,347.232C615.43,365.468 615.211,383.088 615.211,400L548.097,400C548.097,382.341 548.478,365.841 549.072,350.747C571.353,349.575 593.634,348.403 615.915,347.232Z" style="fill:none;stroke:rgb(85,202,76);stroke-opacity:0.15;stroke-width:3.5px;"/>
                <path d="M549.415,342.666C555.147,342.321 559.625,345.748 559.459,350.207C559.292,354.679 554.506,358.554 548.78,358.803C543.12,359.05 538.665,355.679 538.848,351.278C539.03,346.893 543.773,343.006 549.415,342.666Z" style="fill:rgb(85,202,76);"/>
                <path d="M691.863,342.956C691.57,362.186 691.428,381.244 691.428,400L615.211,400C615.211,383.06 615.431,365.441 615.915,347.232C634.617,346.224 661.124,344.77 691.863,342.956Z" style="fill:none;stroke:rgb(85,202,76);stroke-opacity:0.15;stroke-width:3.5px;"/>
                <path d="M616.164,338.596C622.593,338.194 627.701,341.828 627.583,346.599C627.465,351.386 622.139,355.56 615.705,355.851C609.376,356.137 604.354,352.554 604.489,347.844C604.623,343.144 609.844,338.991 616.164,338.596Z" style="fill:rgb(85,202,76);"/>
                <path d="M184.865,400C184.865,416.9 184.644,434.497 184.156,452.703C165.452,453.709 139.006,455.159 108.389,456.962C108.685,437.757 108.828,418.726 108.828,400L184.865,400Z" style="fill:none;stroke:rgb(85,202,76);stroke-opacity:0.15;stroke-width:3.5px;"/>
                <path d="M251.849,400C251.849,417.633 251.466,434.113 250.869,449.197C228.631,450.366 206.394,451.534 184.156,452.703C184.645,434.471 184.865,416.873 184.865,400L251.849,400Z" style="fill:none;stroke:rgb(85,202,76);stroke-opacity:0.15;stroke-width:3.5px;"/>
                <path d="M184.846,391.435C191.18,391.491 196.311,395.331 196.311,400C196.311,404.669 191.18,408.509 184.846,408.565C178.402,408.621 173.179,404.745 173.179,400C173.179,395.255 178.402,391.379 184.846,391.435Z" style="fill:rgb(85,202,76);"/>
                <path d="M310.033,400C310.033,416.29 309.625,431.73 308.956,446.189C296.443,446.762 296.468,446.829 250.869,449.197C251.466,434.123 251.849,417.642 251.849,400L310.033,400Z" style="fill:none;stroke:rgb(85,202,76);stroke-opacity:0.15;stroke-width:3.5px;"/>
                <path d="M251.823,392.013C257.485,392.061 262.101,395.657 262.101,400C262.101,404.343 257.485,407.939 251.823,407.987C246.075,408.036 241.436,404.419 241.436,400C241.436,395.581 246.075,391.964 251.823,392.013Z" style="fill:rgb(85,202,76);"/>
                <path d="M355.454,400C355.454,415.668 355.252,430.565 354.918,444.583C338.487,444.971 323.028,445.545 308.956,446.189C309.624,431.744 310.033,416.303 310.033,400L355.454,400Z" style="fill:none;stroke:rgb(85,202,76);stroke-opacity:0.15;stroke-width:3.5px;"/>
                <path d="M310.004,392.508C314.125,392.539 317.546,395.903 317.546,400C317.546,404.097 314.125,407.461 310.004,407.492C305.833,407.524 302.462,404.135 302.462,400C302.462,395.865 305.833,392.476 310.004,392.508Z" style="fill:rgb(85,202,76);"/>
                <path d="M399.808,400C399.809,414.684 399.811,429.369 399.812,444.053C384.03,444.05 369.028,444.25 354.918,444.583C355.252,430.586 355.454,415.687 355.454,400L399.808,400Z" style="fill:none;stroke:rgb(85,202,76);stroke-opacity:0.15;stroke-width:3.5px;"/>
                <path d="M355.44,392.769C359.43,392.785 362.72,396.037 362.72,400C362.72,403.963 359.43,407.215 355.44,407.231C351.425,407.246 348.159,403.982 348.159,400C348.159,396.018 351.425,392.754 355.44,392.769Z" style="fill:rgb(85,202,76);"/>
                <path d="M444.17,400C444.17,415.675 444.375,430.578 444.715,444.601C430.636,444.263 415.628,444.057 399.812,444.053C399.811,429.369 399.809,414.684 399.808,400L444.17,400Z" style="fill:none;stroke:rgb(85,202,76);stroke-opacity:0.15;stroke-width:3.5px;"/>
                <path d="M399.808,392.855C403.763,392.855 407.002,396.075 407.002,400C407.002,403.925 403.763,407.145 399.808,407.145C395.853,407.144 392.613,403.925 392.613,400C392.613,396.075 395.853,392.856 399.808,392.855Z" style="fill:rgb(85,202,76);"/>
                <path d="M489.619,400C489.619,416.304 490.031,431.757 490.705,446.226C476.638,445.577 461.166,444.996 444.715,444.601C444.376,430.599 444.17,415.694 444.17,400L489.619,400Z" style="fill:none;stroke:rgb(85,202,76);stroke-opacity:0.15;stroke-width:3.5px;"/>
                <path d="M444.185,392.766C448.201,392.75 451.468,396.017 451.468,400C451.468,403.983 448.201,407.25 444.185,407.234C440.194,407.218 436.901,403.964 436.901,400C436.901,396.036 440.194,392.782 444.185,392.766Z" style="fill:rgb(85,202,76);"/>
                <path d="M548.097,400C548.097,417.659 548.478,434.159 549.072,449.253C502.57,446.838 502.59,446.775 490.705,446.226C490.031,431.771 489.619,416.317 489.619,400L548.097,400Z" style="fill:none;stroke:rgb(85,202,76);stroke-opacity:0.15;stroke-width:3.5px;"/>
                <path d="M489.648,392.502C493.823,392.47 497.196,395.862 497.196,400C497.196,404.138 493.823,407.53 489.648,407.498C485.524,407.467 482.1,404.1 482.1,400C482.1,395.9 485.524,392.533 489.648,392.502Z" style="fill:rgb(85,202,76);"/>
                <path d="M615.211,400C615.211,416.942 615.431,434.56 615.915,452.768C593.634,451.597 571.353,450.425 549.072,449.253C548.478,434.168 548.097,417.668 548.097,400L615.211,400Z" style="fill:none;stroke:rgb(85,202,76);stroke-opacity:0.15;stroke-width:3.5px;"/>
                <path d="M548.123,392.003C553.88,391.954 558.528,395.576 558.528,400C558.528,404.424 553.88,408.046 548.123,407.997C542.451,407.948 537.829,404.348 537.829,400C537.829,395.652 542.451,392.052 548.123,392.003Z" style="fill:rgb(85,202,76);"/>
                <path d="M691.428,400C691.428,418.768 691.571,437.826 691.863,457.044C673.25,455.946 648.581,454.528 615.915,452.768C615.43,434.532 615.211,416.913 615.211,400L691.428,400Z" style="fill:none;stroke:rgb(85,202,76);stroke-opacity:0.15;stroke-width:3.5px;"/>
                <path d="M615.229,391.425C621.688,391.368 626.922,395.249 626.922,400C626.922,404.751 621.688,408.632 615.229,408.575C608.882,408.519 603.74,404.675 603.74,400C603.74,395.325 608.882,391.481 615.229,391.425Z" style="fill:rgb(85,202,76);"/>
                <path d="M184.156,452.703C183.63,472.296 182.858,490.281 182.028,506.049C158.914,508.484 134.032,511.196 107.072,514.322C107.676,494.462 108.107,475.297 108.389,456.962C126.998,455.866 151.565,454.457 184.156,452.703Z" style="fill:none;stroke:rgb(85,202,76);stroke-opacity:0.15;stroke-width:3.5px;"/>
                <path d="M250.869,449.197C250.151,467.351 249.092,484.219 247.93,499.283C225.963,501.538 203.995,503.794 182.028,506.049C182.858,490.287 183.63,472.301 184.156,452.703C206.394,451.534 228.631,450.366 250.869,449.197Z" style="fill:none;stroke:rgb(85,202,76);stroke-opacity:0.15;stroke-width:3.5px;"/>
                <path d="M184.368,444.095C190.683,443.81 195.693,447.388 195.558,452.093C195.422,456.788 190.212,460.935 183.906,461.328C177.491,461.729 172.395,458.099 172.514,453.333C172.633,448.553 177.948,444.384 184.368,444.095Z" style="fill:rgb(85,202,76);"/>
                <path d="M308.956,446.189C308.173,463.134 307.016,479.039 305.727,493.46C293.122,494.575 293.158,494.701 247.93,499.283C249.091,484.227 250.15,467.358 250.869,449.197C297.061,446.798 297.045,446.735 308.956,446.189Z" style="fill:none;stroke:rgb(85,202,76);stroke-opacity:0.15;stroke-width:3.5px;"/>
                <path d="M251.162,441.149C256.813,440.903 261.261,444.271 261.077,448.667C260.894,453.047 256.158,456.929 250.524,457.269C244.802,457.613 240.333,454.19 240.5,449.736C240.667,445.269 245.446,441.399 251.162,441.149Z" style="fill:rgb(85,202,76);"/>
                <path d="M354.918,444.583C354.529,460.9 353.955,476.258 353.311,490.247C336.247,491.024 320.236,492.176 305.727,493.46C307.015,479.05 308.172,463.143 308.956,446.189C323.018,445.546 338.478,444.971 354.918,444.583Z" style="fill:none;stroke:rgb(85,202,76);stroke-opacity:0.15;stroke-width:3.5px;"/>
                <path d="M309.278,438.623C313.438,438.463 316.735,441.721 316.558,445.854C316.38,450.011 312.757,453.562 308.577,453.784C304.348,454.008 301.089,450.747 301.298,446.553C301.505,442.381 305.07,438.785 309.278,438.623Z" style="fill:rgb(85,202,76);"/>
                <path d="M399.812,444.053C399.817,459.098 399.821,474.143 399.826,489.188C383.415,489.181 367.866,489.583 353.311,490.247C353.954,476.268 354.529,460.908 354.918,444.583C369.007,444.25 384.01,444.05 399.812,444.053Z" style="fill:none;stroke:rgb(85,202,76);stroke-opacity:0.15;stroke-width:3.5px;"/>
                <path d="M355.078,437.278C359.107,437.198 362.353,440.424 362.273,444.423C362.192,448.447 358.777,451.805 354.729,451.916C350.657,452.027 347.424,448.813 347.535,444.771C347.647,440.753 351.025,437.359 355.078,437.278Z" style="fill:rgb(85,202,76);"/>
                <path d="M444.715,444.601C445.111,460.925 445.696,476.29 446.351,490.283C431.819,489.61 416.264,489.194 399.826,489.188C399.821,474.143 399.817,459.098 399.812,444.053C415.609,444.057 430.615,444.263 444.715,444.601Z" style="fill:none;stroke:rgb(85,202,76);stroke-opacity:0.15;stroke-width:3.5px;"/>
                <path d="M399.811,436.835C403.805,436.836 407.078,440.108 407.095,444.069C407.111,448.055 403.827,451.301 399.814,451.3C395.801,451.299 392.515,448.052 392.53,444.066C392.545,440.105 395.817,436.834 399.811,436.835Z" style="fill:rgb(85,202,76);"/>
                <path d="M490.705,446.226C491.495,463.185 492.662,479.103 493.962,493.533C479.458,492.24 463.435,491.075 446.351,490.283C445.696,476.3 445.111,460.934 444.715,444.601C461.158,444.996 476.628,445.577 490.705,446.226Z" style="fill:none;stroke:rgb(85,202,76);stroke-opacity:0.15;stroke-width:3.5px;"/>
                <path d="M444.552,437.294C448.607,437.375 451.989,440.773 452.101,444.792C452.215,448.836 448.982,452.051 444.907,451.937C440.858,451.825 437.44,448.463 437.358,444.439C437.277,440.438 440.522,437.212 444.552,437.294Z" style="fill:rgb(85,202,76);"/>
                <path d="M549.072,449.253C549.787,467.43 550.841,484.316 551.997,499.391C505.472,494.678 505.496,494.562 493.962,493.533C492.663,479.113 491.496,463.194 490.705,446.226C503.108,446.798 503.081,446.865 549.072,449.253Z" style="fill:none;stroke:rgb(85,202,76);stroke-opacity:0.15;stroke-width:3.5px;"/>
                <path d="M490.38,438.654C494.592,438.817 498.161,442.417 498.37,446.593C498.58,450.791 495.32,454.053 491.087,453.827C486.905,453.603 483.277,450.048 483.098,445.888C482.919,441.751 486.218,438.493 490.38,438.654Z" style="fill:rgb(85,202,76);"/>
                <path d="M615.915,452.768C616.437,472.388 617.205,490.394 618.03,506.176C598.379,504.103 582.114,502.442 551.997,499.391C550.842,484.324 549.787,467.437 549.072,449.253C571.353,450.425 593.634,451.597 615.915,452.768Z" style="fill:none;stroke:rgb(85,202,76);stroke-opacity:0.15;stroke-width:3.5px;"/>
                <path d="M548.78,441.197C554.506,441.446 559.292,445.321 559.459,449.793C559.625,454.252 555.147,457.679 549.415,457.334C543.773,456.994 539.03,453.107 538.848,448.722C538.665,444.321 543.12,440.95 548.78,441.197Z" style="fill:rgb(85,202,76);"/>
                <path d="M691.863,457.044C692.142,475.434 692.569,494.625 693.166,514.483C666.136,511.342 641.194,508.619 618.03,506.176C617.205,490.4 616.438,472.394 615.915,452.768C634.617,453.776 661.124,455.23 691.863,457.044Z" style="fill:none;stroke:rgb(85,202,76);stroke-opacity:0.15;stroke-width:3.5px;"/>
                <path d="M615.705,444.149C622.139,444.44 627.465,448.614 627.583,453.401C627.701,458.172 622.593,461.806 616.164,461.404C609.844,461.009 604.623,456.856 604.489,452.156C604.354,447.446 609.376,443.863 615.705,444.149Z" style="fill:rgb(85,202,76);"/>
                <path d="M182.028,506.049C178.745,527.257 175.462,548.465 172.179,569.673C152.669,572.26 126.826,575.712 98.41,579.635C101.297,557.864 104.184,536.093 107.072,514.322C134.032,511.196 158.914,508.484 182.028,506.049Z" style="fill:none;stroke:rgb(85,202,76);stroke-opacity:0.15;stroke-width:3.5px;"/>
                <path d="M247.93,499.283C245.006,519.802 242.082,540.321 239.158,560.84C216.832,563.784 194.505,566.729 172.179,569.673C175.462,548.465 178.745,527.257 182.028,506.049C203.995,503.794 225.963,501.538 247.93,499.283Z" style="fill:none;stroke:rgb(85,202,76);stroke-opacity:0.15;stroke-width:3.5px;"/>
                <path d="M182.471,497.292C188.721,496.685 193.569,500.067 193.297,504.869C192.431,510.406 186.698,515.488 180.448,516.181C174.14,516.882 169.651,512.855 170.518,507.27C170.756,502.397 176.129,497.909 182.471,497.292Z" style="fill:rgb(85,202,76);"/>
                <path d="M305.727,493.46C303.648,513.48 301.569,533.5 299.489,553.52C284.466,554.463 284.512,554.796 269.596,556.795C259.45,558.143 249.304,559.492 239.158,560.84C242.082,540.321 245.006,519.802 247.93,499.283C293.915,494.624 293.892,494.507 305.727,493.46Z" style="fill:none;stroke:rgb(85,202,76);stroke-opacity:0.15;stroke-width:3.5px;"/>
                <path d="M248.543,491.03C254.126,490.507 258.374,493.734 258.006,498.261C257.266,503.568 252.128,508.389 246.536,508.992C240.886,509.601 236.898,505.682 237.693,500.32C238.028,495.738 242.894,491.558 248.543,491.03Z" style="fill:rgb(85,202,76);"/>
                <path d="M353.311,490.247C352.231,510.534 351.152,530.822 350.072,551.11C331.67,551.699 314.63,552.569 299.489,553.52C301.569,533.5 303.648,513.48 305.727,493.46C320.225,492.176 336.237,491.025 353.311,490.247Z" style="fill:none;stroke:rgb(85,202,76);stroke-opacity:0.15;stroke-width:3.5px;"/>
                <path d="M306.4,485.644C310.693,485.292 313.946,488.513 313.593,492.79C313.092,497.975 309.12,502.489 304.749,502.857C300.41,503.222 297.221,499.384 297.805,494.187C298.218,489.88 302.058,485.999 306.4,485.644Z" style="fill:rgb(85,202,76);"/>
                <path d="M399.826,489.188C399.836,509.564 399.845,529.94 399.854,550.316C381.911,550.311 365.223,550.625 350.072,551.11C351.152,530.822 352.231,510.534 353.311,490.247C367.852,489.584 383.402,489.181 399.826,489.188Z" style="fill:none;stroke:rgb(85,202,76);stroke-opacity:0.15;stroke-width:3.5px;"/>
                <path d="M353.645,482.692C357.81,482.517 361.089,485.796 360.929,489.927C360.692,495.194 357.024,499.592 352.802,499.774C348.597,499.956 345.336,495.889 345.664,490.623C345.886,486.472 349.458,482.869 353.645,482.692Z" style="fill:rgb(85,202,76);"/>
                <path d="M446.351,490.283C447.448,510.568 448.546,530.853 449.643,551.138C434.506,550.645 417.813,550.321 399.854,550.316C399.845,529.94 399.836,509.564 399.826,489.188C416.251,489.194 431.805,489.609 446.351,490.283Z" style="fill:none;stroke:rgb(85,202,76);stroke-opacity:0.15;stroke-width:3.5px;"/>
                <path d="M399.823,481.72C403.952,481.721 407.34,485.126 407.373,489.219C407.422,494.515 403.997,498.76 399.831,498.759C395.664,498.757 392.235,494.509 392.28,489.213C392.309,485.12 395.694,481.718 399.823,481.72Z" style="fill:rgb(85,202,76);"/>
                <path d="M493.962,493.533C496.057,513.547 498.152,533.561 500.247,553.575C485.11,552.617 468.061,551.737 449.643,551.138C448.546,530.853 447.448,510.568 446.351,490.283C463.426,491.075 479.448,492.239 493.962,493.533Z" style="fill:none;stroke:rgb(85,202,76);stroke-opacity:0.15;stroke-width:3.5px;"/>
                <path d="M446.01,482.726C450.199,482.906 453.776,486.513 454.001,490.666C454.333,495.931 451.074,499.995 446.868,499.81C442.646,499.624 438.971,495.225 438.73,489.958C438.567,485.825 441.844,482.548 446.01,482.726Z" style="fill:rgb(85,202,76);"/>
                <path d="M551.997,499.391C554.932,519.923 557.867,540.454 560.802,560.986C549.447,559.476 538.091,557.966 526.735,556.456C513.513,554.68 513.551,554.417 500.247,553.575C498.152,533.561 496.057,513.547 493.962,493.533C506.428,494.645 506.41,494.773 551.997,499.391Z" style="fill:none;stroke:rgb(85,202,76);stroke-opacity:0.15;stroke-width:3.5px;"/>
                <path d="M493.283,485.712C497.629,486.07 501.474,489.957 501.891,494.266C502.479,499.461 499.29,503.296 494.948,502.927C490.573,502.556 486.596,498.041 486.09,492.857C485.734,488.578 488.987,485.357 493.283,485.712Z" style="fill:rgb(85,202,76);"/>
                <path d="M618.03,506.176C621.313,527.394 624.596,548.613 627.879,569.832C605.52,566.883 583.161,563.934 560.802,560.986C557.867,540.454 554.932,519.923 551.997,499.391C570.915,501.307 594.053,503.646 618.03,506.176Z" style="fill:none;stroke:rgb(85,202,76);stroke-opacity:0.15;stroke-width:3.5px;"/>
                <path d="M551.388,491.13C557.046,491.659 561.919,495.843 562.252,500.43C563.049,505.796 559.056,509.717 553.397,509.107C547.794,508.503 542.648,503.679 541.905,498.368C541.538,493.836 545.795,490.607 551.388,491.13Z" style="fill:rgb(85,202,76);"/>
                <path d="M693.166,514.483C696.039,536.262 698.911,558.041 701.784,579.82C682.858,577.204 659.941,574.085 627.879,569.832C624.596,548.613 621.313,527.394 618.03,506.176C641.194,508.619 666.136,511.342 693.166,514.483Z" style="fill:none;stroke:rgb(85,202,76);stroke-opacity:0.15;stroke-width:3.5px;"/>
                <path d="M617.589,497.409C623.945,498.028 629.329,502.523 629.566,507.4C630.431,512.989 625.931,517.017 619.609,516.315C613.346,515.618 607.603,510.532 606.735,504.991C606.466,500.185 611.325,496.799 617.589,497.409Z" style="fill:rgb(85,202,76);"/>
                <path d="M172.179,569.673C169.181,589.043 165.472,612.883 161.4,638.186C137.324,641.449 113.248,644.712 89.172,647.975C91.625,630.206 94.412,609.69 98.41,579.635C117.362,577.019 140.179,573.916 172.179,569.673Z" style="fill:none;stroke:rgb(85,202,76);stroke-opacity:0.15;stroke-width:3.5px;"/>
                <path d="M239.158,560.84C236.113,582.14 232.822,604.789 229.102,629.15C206.534,632.162 183.967,635.174 161.4,638.186C165.263,614.181 168.816,591.403 172.179,569.673C194.505,566.729 216.832,563.784 239.158,560.84Z" style="fill:none;stroke:rgb(85,202,76);stroke-opacity:0.15;stroke-width:3.5px;"/>
                <path d="M173.821,559.047C180.093,558.234 184.399,562.302 183.489,568.176C182.581,574.041 176.796,579.581 170.512,580.429C164.211,581.279 159.783,577.091 160.688,571.2C161.599,565.276 167.546,559.86 173.821,559.047Z" style="fill:rgb(85,202,76);"/>
                <path d="M299.489,553.52C297.282,574.396 294.803,597.023 291.84,621.796C281.699,622.194 281.703,622.065 271.628,623.431C257.453,625.337 243.277,627.244 229.102,629.15C232.822,604.789 236.113,582.14 239.158,560.84C250.502,559.331 261.845,557.822 273.189,556.313C286.316,554.549 286.286,554.349 299.489,553.52Z" style="fill:none;stroke:rgb(85,202,76);stroke-opacity:0.15;stroke-width:3.5px;"/>
                <path d="M240.64,550.449C246.374,549.711 250.368,553.722 249.573,559.462C248.774,565.232 243.427,570.632 237.642,571.411C231.839,572.192 227.77,568.035 228.622,562.23C229.47,556.452 234.882,551.19 240.64,550.449Z" style="fill:rgb(85,202,76);"/>
                <path d="M350.072,551.11C348.927,572.305 347.649,595.184 346.132,620.19C326.087,620.587 307.776,621.172 291.84,621.796C294.8,597.044 297.279,574.428 299.489,553.52C314.623,552.57 331.663,551.699 350.072,551.11Z" style="fill:none;stroke:rgb(85,202,76);stroke-opacity:0.15;stroke-width:3.5px;"/>
                <path d="M300.564,543.293C305.124,542.988 308.369,547.334 307.814,553.017C307.253,558.76 303.01,563.693 298.377,563.965C293.77,564.236 290.47,559.802 291.122,554.065C291.765,548.409 296.03,543.596 300.564,543.293Z" style="fill:rgb(85,202,76);"/>
                <path d="M399.854,550.316C399.866,573.431 399.877,596.546 399.889,619.66C382.377,619.657 364.425,619.827 346.132,620.19C347.649,595.184 348.927,572.305 350.072,551.11C365.214,550.625 381.904,550.311 399.854,550.316Z" style="fill:none;stroke:rgb(85,202,76);stroke-opacity:0.15;stroke-width:3.5px;"/>
                <path d="M350.629,540.752C355.083,540.6 358.471,545.137 358.212,550.871C357.948,556.693 354.015,561.551 349.497,561.686C344.989,561.821 341.547,557.214 341.912,551.392C342.271,545.661 346.203,540.903 350.629,540.752Z" style="fill:rgb(85,202,76);"/>
                <path d="M449.643,551.138C450.808,572.33 452.108,595.205 453.651,620.208C435.321,619.839 417.368,619.663 399.889,619.66C399.877,596.546 399.866,573.431 399.854,550.316C417.806,550.321 434.498,550.645 449.643,551.138Z" style="fill:none;stroke:rgb(85,202,76);stroke-opacity:0.15;stroke-width:3.5px;"/>
                <path d="M399.85,539.915C404.255,539.916 407.886,544.591 407.94,550.34C407.995,556.191 404.34,560.936 399.859,560.935C395.379,560.934 391.72,556.186 391.769,550.335C391.818,544.586 395.444,539.914 399.85,539.915Z" style="fill:rgb(85,202,76);"/>
                <path d="M500.247,553.575C502.471,574.445 504.97,597.066 507.956,621.833C492.022,621.204 473.706,620.612 453.651,620.208C452.108,595.205 450.808,572.33 449.643,551.138C468.054,551.737 485.102,552.617 500.247,553.575Z" style="fill:none;stroke:rgb(85,202,76);stroke-opacity:0.15;stroke-width:3.5px;"/>
                <path d="M449.077,540.781C453.505,540.935 457.442,545.694 457.806,551.425C458.177,557.245 454.738,561.849 450.228,561.712C445.709,561.575 441.771,556.715 441.502,550.894C441.237,545.161 444.622,540.627 449.077,540.781Z" style="fill:rgb(85,202,76);"/>
                <path d="M560.802,560.986C563.858,582.294 567.158,604.945 570.886,629.301C556.289,627.338 541.692,625.375 527.095,623.413C517.571,622.121 517.578,622.213 507.956,621.833C504.973,597.087 502.474,574.477 500.247,553.575C515.365,554.532 515.311,554.926 530.331,556.938C540.488,558.287 550.645,559.636 560.802,560.986Z" style="fill:none;stroke:rgb(85,202,76);stroke-opacity:0.15;stroke-width:3.5px;"/>
                <path d="M499.164,543.351C503.701,543.657 507.972,548.471 508.619,554.125C509.276,559.86 505.978,564.291 501.368,564.017C496.732,563.743 492.483,558.809 491.918,553.068C491.359,547.386 494.601,543.044 499.164,543.351Z" style="fill:rgb(85,202,76);"/>
                <path d="M627.879,569.832C630.876,589.205 634.585,613.048 638.653,638.346C616.064,635.331 593.475,632.316 570.886,629.301C567.158,604.945 563.858,582.293 560.802,560.986C583.161,563.934 605.52,566.883 627.879,569.832Z" style="fill:none;stroke:rgb(85,202,76);stroke-opacity:0.15;stroke-width:3.5px;"/>
                <path d="M559.315,550.59C565.081,551.332 570.501,556.596 571.352,562.377C572.206,568.183 568.134,572.342 562.323,571.56C556.532,570.78 551.178,565.378 550.375,559.607C549.577,553.864 553.574,549.851 559.315,550.59Z" style="fill:rgb(85,202,76);"/>
                <path d="M701.784,579.82C704.296,598.81 707.494,622.837 710.971,648.152C686.865,644.883 662.759,641.614 638.653,638.346C634.794,614.348 631.242,591.568 627.879,569.832C647.36,572.416 673.256,575.877 701.784,579.82Z" style="fill:none;stroke:rgb(85,202,76);stroke-opacity:0.15;stroke-width:3.5px;"/>
                <path d="M626.237,559.202C632.523,560.017 638.479,565.437 639.389,571.362C640.294,577.254 635.858,581.442 629.546,580.59C623.251,579.741 617.459,574.198 616.551,568.332C615.64,562.456 619.954,558.387 626.237,559.202Z" style="fill:rgb(85,202,76);"/>
                <path d="M161.4,638.186C157.586,661.889 153.417,687.118 148.762,714.118C125.435,716.382 102.109,718.645 78.783,720.908C82.532,695.448 85.971,671.155 89.172,647.975C113.248,644.712 137.324,641.449 161.4,638.186Z" style="fill:none;stroke:rgb(85,202,76);stroke-opacity:0.15;stroke-width:3.5px;"/>
                <path d="M229.102,629.15C225.421,653.248 221.28,679.284 216.477,707.706C193.905,709.843 171.333,711.981 148.762,714.118C153.417,687.118 157.586,661.889 161.4,638.186C183.967,635.174 206.534,632.162 229.102,629.15Z" style="fill:none;stroke:rgb(85,202,76);stroke-opacity:0.15;stroke-width:3.5px;"/>
                <path d="M163.257,626.591C169.522,625.739 173.736,630.212 172.693,636.675C171.654,643.115 165.769,649.157 159.493,649.977C153.26,650.792 148.961,646.143 149.987,639.716C151.017,633.263 157.022,627.439 163.257,626.591Z" style="fill:rgb(85,202,76);"/>
                <path d="M291.84,621.796C288.914,646.27 285.5,672.982 281.37,702.539C269.954,702.745 269.967,702.652 258.613,703.727C244.568,705.053 230.522,706.379 216.477,707.706C221.28,679.284 225.421,653.248 229.102,629.15C243.277,627.244 257.453,625.337 271.628,623.431C281.703,622.065 281.698,622.194 291.84,621.796Z" style="fill:none;stroke:rgb(85,202,76);stroke-opacity:0.15;stroke-width:3.5px;"/>
                <path d="M230.88,617.421C236.777,616.62 240.774,621.177 239.798,627.719C238.821,634.263 233.213,640.374 227.255,641.151C221.347,641.921 217.304,637.143 218.325,630.589C219.342,624.057 225.003,618.22 230.88,617.421Z" style="fill:rgb(85,202,76);"/>
                <path d="M346.132,620.19C344.631,644.92 342.887,671.901 340.786,701.736C321.416,701.911 301.558,702.176 281.37,702.539C285.5,672.982 288.914,646.27 291.84,621.796C307.771,621.172 326.082,620.587 346.132,620.19Z" style="fill:none;stroke:rgb(85,202,76);stroke-opacity:0.15;stroke-width:3.5px;"/>
                <path d="M293.241,609.941C298.106,609.733 301.466,614.867 300.739,621.461C300,628.166 295.319,633.805 290.365,633.982C285.438,634.157 282.051,628.853 282.913,622.16C283.759,615.586 288.393,610.149 293.241,609.941Z" style="fill:rgb(85,202,76);"/>
                <path d="M399.889,619.66C399.904,646.931 399.92,674.201 399.935,701.471C380.376,701.47 360.607,701.557 340.786,701.736C342.887,671.901 344.631,644.92 346.132,620.19C364.444,619.827 382.396,619.657 399.889,619.66Z" style="fill:none;stroke:rgb(85,202,76);stroke-opacity:0.15;stroke-width:3.5px;"/>
                <path d="M346.85,608.204C351.634,608.1 355.245,613.374 354.907,620.03C354.562,626.812 350.254,632.418 345.375,632.506C340.511,632.593 336.864,627.155 337.342,620.378C337.81,613.732 342.075,608.308 346.85,608.204Z" style="fill:rgb(85,202,76);"/>
                <path d="M453.651,620.208C455.176,644.935 456.95,671.913 459.087,701.745C439.253,701.563 419.483,701.473 399.935,701.471C399.92,674.201 399.904,646.931 399.889,619.66C417.387,619.663 435.34,619.839 453.651,620.208Z" style="fill:none;stroke:rgb(85,202,76);stroke-opacity:0.15;stroke-width:3.5px;"/>
                <path d="M399.883,607.632C404.637,607.633 408.558,613.003 408.628,619.676C408.7,626.482 404.744,632.02 399.895,632.019C395.047,632.019 391.085,626.479 391.149,619.673C391.213,613 395.128,607.631 399.883,607.632Z" style="fill:rgb(85,202,76);"/>
                <path d="M507.956,621.833C510.905,646.301 514.346,673.007 518.51,702.558C498.306,702.191 478.445,701.923 459.087,701.745C456.95,671.913 455.176,644.935 453.651,620.208C473.701,620.612 492.017,621.203 507.956,621.833Z" style="fill:none;stroke:rgb(85,202,76);stroke-opacity:0.15;stroke-width:3.5px;"/>
                <path d="M452.92,608.224C457.696,608.329 461.967,613.755 462.442,620.399C462.926,627.175 459.285,632.611 454.42,632.523C449.541,632.434 445.225,626.827 444.874,620.045C444.529,613.39 448.135,608.118 452.92,608.224Z" style="fill:rgb(85,202,76);"/>
                <path d="M570.886,629.301C574.574,653.393 578.721,679.416 583.526,707.813C569.476,706.487 555.426,705.161 541.376,703.834C529.967,702.754 529.973,702.766 518.51,702.558C514.346,673.007 510.905,646.301 507.956,621.833C517.578,622.213 517.571,622.121 527.095,623.413C541.692,625.375 556.289,627.338 570.886,629.301Z" style="fill:none;stroke:rgb(85,202,76);stroke-opacity:0.15;stroke-width:3.5px;"/>
                <path d="M506.544,609.981C511.394,610.191 516.034,615.628 516.886,622.2C517.754,628.891 514.371,634.192 509.443,634.015C504.487,633.838 499.799,628.198 499.054,621.495C498.32,614.902 501.677,609.771 506.544,609.981Z" style="fill:rgb(85,202,76);"/>
                <path d="M638.653,638.346C642.463,662.041 646.627,687.255 651.274,714.231C628.691,712.092 606.109,709.952 583.526,707.813C578.721,679.416 574.574,653.393 570.886,629.301C593.475,632.316 616.064,635.331 638.653,638.346Z" style="fill:none;stroke:rgb(85,202,76);stroke-opacity:0.15;stroke-width:3.5px;"/>
                <path d="M569.104,617.574C574.986,618.373 580.653,624.21 581.672,630.741C582.694,637.292 578.648,642.069 572.736,641.298C566.774,640.521 561.161,634.411 560.182,627.869C559.203,621.328 563.202,616.772 569.104,617.574Z" style="fill:rgb(85,202,76);"/>
                <path d="M710.971,648.152C714.154,671.321 717.572,695.597 721.298,721.029C697.957,718.763 674.615,716.497 651.274,714.231C646.627,687.255 642.463,662.041 638.653,638.346C662.759,641.614 686.865,644.883 710.971,648.152Z" style="fill:none;stroke:rgb(85,202,76);stroke-opacity:0.15;stroke-width:3.5px;"/>
                <path d="M636.797,626.754C643.04,627.603 649.05,633.426 650.079,639.879C651.103,646.303 646.798,650.949 640.558,650.133C634.275,649.312 628.386,643.27 627.347,636.833C626.305,630.371 630.525,625.9 636.797,626.754Z" style="fill:rgb(85,202,76);"/>
            </g>
        </g>
        <g>
        </g>
    </g>
</svg>
