<?xml version="1.0" encoding="UTF-8" standalone="no"?>
<!DOCTYPE svg PUBLIC "-//W3C//DTD SVG 1.1//EN" "http://www.w3.org/Graphics/SVG/1.1/DTD/svg11.dtd">
<svg width="100%" height="100%" viewBox="0 0 267 70" version="1.1" xmlns="http://www.w3.org/2000/svg" xmlns:xlink="http://www.w3.org/1999/xlink" xml:space="preserve" xmlns:serif="http://www.serif.com/" style="fill-rule:evenodd;clip-rule:evenodd;stroke-linecap:round;stroke-linejoin:round;stroke-miterlimit:1.5;">
    <g>
        <g transform="matrix(1,0,0,1.72054,-3,-17.8725)">
            <g style="filter:url(#_Effect1);">
                <path d="M266.813,22.98L266.943,38.286C266.676,42.431 263.711,42.902 258.005,42.902C191.396,42.768 69.979,43.252 39.006,43.058C35.196,43.034 38.085,48.504 35.895,48.514C31.936,48.532 19.78,48.568 16.534,48.647C10.827,48.647 4.957,49.365 4.957,43.658L4.957,22.98C4.957,17.273 9.589,12.641 15.296,12.641L89.779,12.641L89.836,16.372L256.726,15.97C264.66,16.425 266.722,16.919 266.813,22.98Z" style="fill:url(#_Linear2);"/>
            </g>
            <g style="filter:url(#_Effect3);">
                <path d="M266.813,22.98L266.943,38.286C266.676,42.431 263.711,42.902 258.005,42.902C191.396,42.768 69.979,43.252 39.006,43.058C35.196,43.034 38.085,48.504 35.895,48.514C31.936,48.532 19.78,48.568 16.534,48.647C10.827,48.647 4.957,49.365 4.957,43.658L4.957,22.98C4.957,17.273 9.589,12.641 15.296,12.641L89.779,12.641L89.836,16.372L256.726,15.97C264.66,16.425 266.722,16.919 266.813,22.98Z" style="fill:url(#_Linear4);"/>
            </g>
        </g>
        <g transform="matrix(1,0,0,1.72054,-3,-17.8725)">
            <g style="filter:url(#_Effect5);">
                <path d="M266.813,22.98L266.943,38.286C266.676,42.431 263.711,42.902 258.005,42.902C191.396,42.768 69.979,43.252 39.006,43.058C35.196,43.034 38.085,48.504 35.895,48.514C31.936,48.532 19.78,48.568 16.534,48.647C10.827,48.647 4.957,49.365 4.957,43.658L4.957,22.98C4.957,17.273 9.589,12.641 15.296,12.641L89.779,12.641L89.836,16.372L256.726,15.97C264.66,16.425 266.722,16.919 266.813,22.98Z" style="fill:none;stroke:rgb(117,210,79);stroke-width:0.76px;"/>
            </g>
            <g style="filter:url(#_Effect6);">
                <path d="M266.813,22.98L266.943,38.286C266.676,42.431 263.711,42.902 258.005,42.902C191.396,42.768 69.979,43.252 39.006,43.058C35.196,43.034 38.085,48.504 35.895,48.514C31.936,48.532 19.78,48.568 16.534,48.647C10.827,48.647 4.957,49.365 4.957,43.658L4.957,22.98C4.957,17.273 9.589,12.641 15.296,12.641L89.779,12.641L89.836,16.372L256.726,15.97C264.66,16.425 266.722,16.919 266.813,22.98Z" style="fill:none;stroke:rgb(117,210,79);stroke-width:0.76px;"/>
            </g>
        </g>
    </g>
    <g transform="matrix(1,0,0,1,6.26809,4.18567)">
        <g transform="matrix(40,0,0,40,188.484,44.008)">
        </g>
        <text x="9.206px" y="44.008px" style="font-family:'ArialMT', 'Arial', sans-serif;font-size:40px;fill:rgb(227,235,119);">MEMOR<tspan x="161.804px " y="44.008px ">Y</tspan></text>
    </g>
    <defs>
        <filter id="_Effect1" filterUnits="userSpaceOnUse" x="0.0880394" y="9.81088" width="271.724" height="41.6945">
            <feGaussianBlur in="SourceGraphic" stdDeviation="0.57664"/>
        </filter>
        <linearGradient id="_Linear2" x1="0" y1="0" x2="1" y2="0" gradientUnits="userSpaceOnUse" gradientTransform="matrix(248.282,0,0,107.396,8.53169,30.4289)"><stop offset="0" style="stop-color:rgb(101,179,70);stop-opacity:0.44"/><stop offset="0.59" style="stop-color:rgb(106,183,76);stop-opacity:0.44"/><stop offset="0.81" style="stop-color:rgb(118,191,90);stop-opacity:0.44"/><stop offset="1" style="stop-color:rgb(130,200,104);stop-opacity:0.44"/></linearGradient>
        <filter id="_Effect3" filterUnits="userSpaceOnUse" x="0.0880394" y="9.81088" width="271.724" height="41.6945">
            <feGaussianBlur in="SourceGraphic" stdDeviation="0.57664"/>
        </filter>
        <linearGradient id="_Linear4" x1="0" y1="0" x2="1" y2="0" gradientUnits="userSpaceOnUse" gradientTransform="matrix(248.282,0,0,107.396,8.53169,30.4289)"><stop offset="0" style="stop-color:rgb(101,179,70);stop-opacity:0.44"/><stop offset="0.59" style="stop-color:rgb(106,183,76);stop-opacity:0.44"/><stop offset="0.81" style="stop-color:rgb(118,191,90);stop-opacity:0.44"/><stop offset="1" style="stop-color:rgb(130,200,104);stop-opacity:0.44"/></linearGradient>
        <filter id="_Effect5" filterUnits="userSpaceOnUse" x="-0.445294" y="9.5009" width="272.791" height="42.3145">
            <feGaussianBlur in="SourceGraphic" stdDeviation="0.57664"/>
        </filter>
        <filter id="_Effect6" filterUnits="userSpaceOnUse" x="-0.445294" y="9.5009" width="272.791" height="42.3145">
            <feGaussianBlur in="SourceGraphic" stdDeviation="0.57664"/>
        </filter>
    </defs>
</svg>
